<?xml version="1.0" encoding="UTF-8" standalone="no"?>
<!-- Generator: Adobe Illustrator 19.2.0, SVG Export Plug-In . SVG Version: 6.00 Build 0)  -->

<svg
   xmlns:dc="http://purl.org/dc/elements/1.1/"
   xmlns:cc="http://creativecommons.org/ns#"
   xmlns:rdf="http://www.w3.org/1999/02/22-rdf-syntax-ns#"
   xmlns:svg="http://www.w3.org/2000/svg"
   xmlns="http://www.w3.org/2000/svg"
   xmlns:sodipodi="http://sodipodi.sourceforge.net/DTD/sodipodi-0.dtd"
   xmlns:inkscape="http://www.inkscape.org/namespaces/inkscape"
   version="1.1"
   id="Layer_1"
   x="0px"
   y="0px"
   width="49.2631"
   height="40.035702"
   viewBox="0 0 49.263099 40.035701"
   xml:space="preserve"
   inkscape:version="0.92.1 r15371"
   sodipodi:docname="Twitter_color.svg"><metadata
     id="metadata9"><rdf:RDF><cc:Work
         rdf:about=""><dc:format>image/svg+xml</dc:format><dc:type
           rdf:resource="http://purl.org/dc/dcmitype/StillImage" /><dc:title></dc:title></cc:Work></rdf:RDF></metadata><defs
     id="defs7" /><sodipodi:namedview
     pagecolor="#ffffff"
     bordercolor="#666666"
     borderopacity="1"
     objecttolerance="10"
     gridtolerance="10"
     guidetolerance="10"
     inkscape:pageopacity="0"
     inkscape:pageshadow="2"
     inkscape:window-width="1835"
     inkscape:window-height="1057"
     id="namedview5"
     showgrid="false"
     inkscape:zoom="4.1627714"
     inkscape:cx="-16.469792"
     inkscape:cy="22.499899"
     inkscape:window-x="77"
     inkscape:window-y="-8"
     inkscape:window-maximized="1"
     inkscape:current-layer="Layer_1"
     inkscape:pagecheckerboard="true"
     showguides="false" /><path
     d="m 49.2631,4.7388 c -1.8115,0.8047 -3.7597,1.3477 -5.8051,1.5913 2.0874,-1.25 3.6894,-3.2305 4.4443,-5.5918 -1.9531,1.1587 -4.1152,2 -6.418,2.4536 C 39.6411,1.2276 37.0141,0 34.1074,0 28.5258,0 24.0005,4.5254 24.0005,10.107 c 0,0.792 0.0893,1.563 0.2617,2.3027 C 15.8623,11.9888 8.4145,7.9654 3.4297,1.8501 2.56,3.3423 2.0615,5.0782 2.0615,6.9312 c 0,3.5063 1.7842,6.5996 4.4961,8.4126 -1.6563,-0.0532 -3.2154,-0.5073 -4.5777,-1.2647 -9e-4,0.042 -9e-4,0.0845 -9e-4,0.128 0,4.896 3.4839,8.9809 8.1079,9.9101 -0.8482,0.2305 -1.7412,0.3545 -2.6631,0.3545 -0.6519,0 -1.2847,-0.063 -1.9019,-0.1816 1.2867,4.0151 5.0191,6.9375 9.441,7.019 -3.459,2.711 -7.8165,4.3267 -12.5523,4.3267 -0.8154,0 -1.6196,-0.0484 -2.4106,-0.1411 4.4736,2.8681 9.7856,4.541 15.4931,4.541 18.5908,0 28.7559,-15.4009 28.7559,-28.7569 0,-0.4375 -0.0088,-0.8745 -0.0283,-1.3076 1.9741,-1.4248 3.6884,-3.205 5.0424,-5.2324 z"
     id="path3"
     style="fill:#1da1f2;fill-opacity:1"
     inkscape:connector-curvature="0" /></svg>